HIERARCHY
ROOT Hips
{
	OFFSET 0.000000 0.000000 0.000000
	CHANNELS 6 Xposition Yposition Zposition Zrotation Yrotation Xrotation 
	JOINT LHipJoint
	{
		OFFSET 0.000000 0.000000 0.000000
		CHANNELS 3 Zrotation Yrotation Xrotation
		JOINT LeftUpLeg
		{
			OFFSET 1.363060 -1.794630 0.839290
			CHANNELS 3 Zrotation Yrotation Xrotation
			JOINT LeftLeg
			{
				OFFSET 2.448110 -6.726130 0.000000
				CHANNELS 3 Zrotation Yrotation Xrotation
				JOINT LeftFoot
				{
					OFFSET 2.562200 -7.039590 0.000000
					CHANNELS 3 Zrotation Yrotation Xrotation
					JOINT LeftToeBase
					{
						OFFSET 0.157640 -0.433110 2.322550
						CHANNELS 3 Zrotation Yrotation Xrotation
						End Site
						{
							OFFSET 0.000000 0.000000 0.000000
						}
					}
				}
			}
		}
	}
	JOINT RHipJoint
	{
		OFFSET 0.000000 0.000000 0.000000
		CHANNELS 3 Zrotation Yrotation Xrotation
		JOINT RightUpLeg
		{
			OFFSET -1.305520 -1.794630 0.839290
			CHANNELS 3 Zrotation Yrotation Xrotation
			JOINT RightLeg
			{
				OFFSET -2.542530 -6.985550 0.000000
				CHANNELS 3 Zrotation Yrotation Xrotation
				JOINT RightFoot
				{
					OFFSET -2.568260 -7.056230 0.000000
					CHANNELS 3 Zrotation Yrotation Xrotation
					JOINT RightToeBase
					{
						OFFSET -0.164730 -0.452590 2.363150
						CHANNELS 3 Zrotation Yrotation Xrotation
						End Site
						{
							OFFSET 0.000000 0.000000 0.000000
						}
					}
				}
			}
		}
	}
	JOINT LowerBack
	{
		OFFSET 0.000000 0.000000 0.000000
		CHANNELS 3 Zrotation Yrotation Xrotation
		JOINT Spine
		{
			OFFSET 0.028270 2.035590 -0.193380
			CHANNELS 3 Zrotation Yrotation Xrotation
			JOINT Spine1
			{
				OFFSET 0.056720 2.048850 -0.042750
				CHANNELS 3 Zrotation Yrotation Xrotation
				JOINT Neck
				{
					OFFSET 0.000000 0.000000 0.000000
					CHANNELS 3 Zrotation Yrotation Xrotation
					JOINT Neck1
					{
						OFFSET -0.054170 1.746240 0.172020
						CHANNELS 3 Zrotation Yrotation Xrotation
						JOINT Head
						{
							OFFSET 0.104070 1.761360 -0.123970
							CHANNELS 3 Zrotation Yrotation Xrotation
							End Site
							{
								OFFSET 0.000000 0.000000 0.000000
							}
						}
					}
				}
				JOINT LeftShoulder
				{
					OFFSET 0.000000 0.000000 0.000000
					CHANNELS 3 Zrotation Yrotation Xrotation
					JOINT LeftArm
					{
						OFFSET 3.362410 1.200890 -0.311210
						CHANNELS 3 Zrotation Yrotation Xrotation
						JOINT LeftForeArm
						{
							OFFSET 4.983000 -0.000000 -0.000000
							CHANNELS 3 Zrotation Yrotation Xrotation
							JOINT LeftHand
							{
								OFFSET 3.483560 -0.000000 -0.000000
								CHANNELS 3 Zrotation Yrotation Xrotation
								JOINT LeftFingerBase
								{
									OFFSET 0.000000 0.000000 0.000000
									CHANNELS 3 Zrotation Yrotation Xrotation
									JOINT LeftHandIndex1
									{
										OFFSET 0.715260 -0.000000 -0.000000
										CHANNELS 3 Zrotation Yrotation Xrotation
										End Site
										{
											OFFSET 0.000000 0.000000 0.000000
										}
									}
								}
								JOINT LThumb
								{
									OFFSET 0.000000 0.000000 0.000000
									CHANNELS 3 Zrotation Yrotation Xrotation
									End Site
									{
										OFFSET 0.000000 0.000000 0.000000
									}
								}
							}
						}
					}
				}
				JOINT RightShoulder
				{
					OFFSET 0.000000 0.000000 0.000000
					CHANNELS 3 Zrotation Yrotation Xrotation
					JOINT RightArm
					{
						OFFSET -3.136600 1.374050 -0.404650
						CHANNELS 3 Zrotation Yrotation Xrotation
						JOINT RightForeArm
						{
							OFFSET -5.241900 -0.000000 -0.000000
							CHANNELS 3 Zrotation Yrotation Xrotation
							JOINT RightHand
							{
								OFFSET -3.444170 -0.000000 -0.000000
								CHANNELS 3 Zrotation Yrotation Xrotation
								JOINT RightFingerBase
								{
									OFFSET 0.000000 0.000000 0.000000
									CHANNELS 3 Zrotation Yrotation Xrotation
									JOINT RightHandIndex1
									{
										OFFSET -0.622530 -0.000000 -0.000000
										CHANNELS 3 Zrotation Yrotation Xrotation
										End Site
										{
											OFFSET 0.000000 0.000000 0.000000
										}
									}
								}
								JOINT RThumb
								{
									OFFSET 0.000000 0.000000 0.000000
									CHANNELS 3 Zrotation Yrotation Xrotation
									End Site
									{
										OFFSET 0.000000 0.000000 0.000000
									}
								}
							}
						}
					}
				}
			}
		}
	}
}
MOTION
Frames: 10
Frame Time: 0.008333
-0.459619 16.596891 -0.607702 161.219608 87.622171 166.429033 -9.224101 1.914179 1.084256 -20.047085 8.199421 -36.247966 -2.231130 1.353633 32.869707 2.825462 13.754771 -13.171363 178.834700 0.000000 -0.100601 11.600311 -3.247235 -1.327364 -4.530757 -14.877839 -5.856511 -0.555037 -3.097985 48.880759 0.078779 12.101965 15.675741 4.667100 0.000000 -84.027400 -8.875718 1.187100 -1.217290 -2.318279 1.641428 -3.625273 -4.915430 1.484394 -1.525656 7.065760 -4.319753 -7.829053 -1.688071 -0.132554 -0.037011 0.000000 0.000000 0.000000 -9.623943 15.835329 2.437740 -68.333226 42.917638 2.844382 -4.988869 -9.660481 -0.016972 -0.133288 8.053686 -0.002287 -0.110225 -0.158512 -0.000000 0.000000 0.000000 0.000000 0.000000 0.000000 0.000000 5.123125 1.931243 -0.516216 26.893424 51.034105 2.903033 -0.132089 69.411902 -0.013031 0.911676 8.054877 0.079510 -0.150266 -0.547031 0.000000 0.000000 0.000000 0.000000 0.000000 0.000000 0.000000 
-0.340170 16.546173 -0.653257 157.675268 87.611195 162.695481 -9.127039 1.985870 0.940302 -20.360326 8.207071 -36.317068 -2.210763 1.509458 34.697464 2.909051 13.937098 -14.478278 178.448700 0.000000 -0.238601 11.820794 -3.033179 -1.427921 -5.270850 -15.033900 -7.205262 -0.794785 -3.229290 52.077172 -0.084946 11.527043 16.723761 4.736600 0.000000 -81.661600 -8.890809 1.145635 -0.948421 -2.336637 1.602532 -3.604340 -5.005390 1.453416 -1.628995 7.026850 -3.968885 -7.698185 -1.789274 -0.142075 -0.005536 0.000000 0.000000 0.000000 -9.950980 15.331973 2.496879 -68.421918 41.935711 3.957560 -4.924887 -9.650651 -0.017007 -0.269669 8.360315 -0.012997 -0.103857 -0.155364 -0.000000 0.000000 0.000000 0.000000 0.000000 0.000000 0.000000 5.411829 2.373120 -0.459121 28.287207 50.855310 3.036250 -0.120191 69.011515 -0.012558 0.920232 8.021003 0.079760 -0.148768 -0.546804 0.000000 0.000000 0.000000 0.000000 0.000000 0.000000 0.000000 
-0.224959 16.494768 -0.700789 154.587212 87.577539 159.400997 -9.052896 2.032012 0.779510 -20.652650 8.244556 -36.281731 -2.190031 1.646884 36.396554 2.998417 14.143244 -15.840688 178.033700 0.000001 -0.282800 12.008424 -2.821326 -1.532302 -5.919411 -15.083566 -8.542733 -1.024065 -3.374972 55.236090 -0.265643 10.336026 17.405609 4.478400 -0.000000 -78.983700 -8.854390 1.100760 -0.652827 -2.343479 1.558410 -3.577667 -5.094889 1.417848 -1.730868 6.978128 -3.573495 -7.553168 -1.900871 -0.152502 0.029038 0.000000 0.000000 0.000000 -10.253141 14.840529 2.570962 -68.514878 40.758713 5.045607 -4.852400 -9.605675 -0.016786 -0.400204 8.592748 -0.023800 -0.097411 -0.150914 -0.000000 0.000000 0.000000 0.000000 0.000000 0.000000 0.000000 5.726010 2.871907 -0.405543 29.734301 50.597394 3.178142 -0.110391 68.608446 -0.012939 0.828647 8.040039 0.072913 -0.145782 -0.547447 0.000000 0.000000 0.000000 0.000000 0.000000 0.000000 0.000000 
-0.113428 16.443447 -0.749932 151.864089 87.525994 156.453677 -9.000278 2.059216 0.607074 -20.923348 8.300810 -36.138576 -2.169128 1.767852 37.954721 3.091680 14.375139 -17.207157 177.602300 -0.000000 -0.266800 12.166636 -2.610494 -1.639540 -6.483439 -15.036883 -9.860117 -1.247608 -3.533229 58.328136 -0.463979 8.551995 17.684182 3.892699 -0.000000 -76.089900 -8.780455 1.054360 -0.336504 -2.342535 1.511570 -3.545379 -5.185270 1.380063 -1.825686 6.934513 -3.141731 -7.398088 -2.024088 -0.163837 0.065344 0.000000 0.000000 0.000000 -10.511704 14.385045 2.658350 -68.598098 39.359505 6.083792 -4.770550 -9.501663 -0.016236 -0.501356 8.728153 -0.032496 -0.090941 -0.145099 -0.000000 0.000000 0.000000 0.000000 0.000000 0.000000 0.000000 6.089068 3.420500 -0.353663 31.203338 50.254983 3.320532 -0.102064 68.204039 -0.014173 0.644057 8.131566 0.059371 -0.141473 -0.549180 -0.000000 0.000000 0.000000 0.000000 0.000000 0.000000 0.000000 
-0.004938 16.393091 -0.800365 149.453791 87.457453 153.803375 -8.967315 2.072744 0.427608 -21.172570 8.364634 -35.890256 -2.147983 1.874274 39.366376 3.186198 14.629899 -18.532038 177.167000 0.000000 -0.230700 12.299150 -2.400337 -1.747479 -6.969665 -14.901581 -11.150876 -1.467805 -3.701237 61.321570 -0.681324 6.255524 17.541495 3.030001 0.000000 -73.001900 -8.682287 1.008126 -0.005856 -2.337283 1.464270 -3.508115 -5.277619 1.342138 -1.909777 6.907661 -2.680581 -7.236125 -2.159235 -0.176023 0.102304 0.000000 0.000000 0.000000 -10.717326 13.982304 2.756192 -68.654918 37.724619 7.054187 -4.679420 -9.331188 -0.015323 -0.551758 8.752139 -0.036984 -0.084476 -0.137909 -0.000000 0.000000 0.000000 0.000000 0.000000 0.000000 0.000000 6.515472 4.011213 -0.301316 32.678215 49.816135 3.453036 -0.093917 67.800956 -0.016135 0.387135 8.307574 0.040331 -0.136166 -0.552021 -0.000000 0.000000 0.000000 0.000000 0.000000 0.000000 0.000000 
0.101116 16.344580 -0.851631 147.311310 87.370656 151.408685 -8.950964 2.077246 0.245258 -21.403093 8.424622 -35.543032 -2.126673 1.967910 40.629416 3.279370 14.902339 -19.779241 176.739100 -0.000000 -0.213700 12.410234 -2.190900 -1.853381 -7.386272 -14.684936 -12.410896 -1.684820 -3.875565 64.184109 -0.917468 3.580140 16.982240 1.983800 -0.000001 -69.691300 -8.572889 0.963930 0.332638 -2.331081 1.418905 -3.466646 -5.372936 1.306277 -1.980133 6.906791 -2.199528 -7.070945 -2.306052 -0.188955 0.138742 0.000000 0.000000 0.000000 -10.865579 13.645175 2.860794 -68.668426 35.846909 7.942695 -4.580043 -9.094949 -0.014044 -0.532621 8.656979 -0.035561 -0.078027 -0.129375 -0.000000 0.000000 0.000000 0.000000 0.000000 0.000000 0.000000 7.014523 4.632557 -0.246651 34.151005 49.270503 3.565033 -0.084439 67.399706 -0.018641 0.082225 8.571136 0.016795 -0.130208 -0.555801 -0.000000 0.000000 0.000000 0.000000 0.000000 0.000000 0.000000 
0.205248 16.298769 -0.903309 145.420257 87.262015 149.259383 -8.948169 2.076420 0.063681 -21.619338 8.471028 -35.108055 -2.105573 2.050332 41.745151 3.368697 15.184105 -20.924175 176.328600 -0.000000 -0.246400 12.503453 -1.983252 -1.953896 -7.742175 -14.393547 -13.639245 -1.896987 -4.052580 66.884172 -1.168563 0.698394 16.036394 0.873000 -0.000001 -66.120900 -8.463929 0.923812 0.672223 -2.326685 1.377957 -3.422159 -5.471248 1.274697 -2.035450 6.935332 -1.705398 -6.905428 -2.462806 -0.202423 0.173772 0.000000 0.000000 0.000000 -10.956646 13.382405 2.968594 -68.623866 33.725974 8.748781 -4.474085 -8.803044 -0.012441 -0.428936 8.442007 -0.027329 -0.071593 -0.119560 -0.000000 0.000000 0.000000 0.000000 0.000000 0.000000 0.000000 7.581034 5.274150 -0.189815 35.633369 48.599715 3.642004 -0.071957 67.001527 -0.021427 -0.239909 8.915426 -0.009636 -0.124023 -0.560152 -0.000000 0.000000 0.000000 0.000000 0.000000 0.000000 0.000000 
0.307899 16.256518 -0.954931 143.756095 87.126743 147.336563 -8.954628 2.073996 -0.114759 -21.828876 8.496773 -34.593844 -2.085694 2.122829 42.712960 3.452107 15.465858 -21.951980 175.943300 0.000000 -0.347100 12.582868 -1.778266 -2.046155 -8.049895 -14.034684 -14.834951 -2.101691 -4.228593 69.391777 -1.426086 -2.197997 14.761632 -0.180300 0.000000 -62.279501 -8.368390 0.889814 1.008260 -2.327624 1.343873 -3.375003 -5.575615 1.249672 -2.073194 7.003415 -1.224040 -6.745922 -2.630337 -0.216381 0.205520 0.000000 0.000000 0.000000 -10.997070 13.188249 3.072931 -68.511186 31.375628 9.438652 -4.365202 -8.475527 -0.010591 -0.229017 8.109976 -0.012285 -0.065201 -0.108612 -0.000000 0.000000 0.000000 0.000000 0.000000 0.000000 0.000000 8.235808 5.904752 -0.126574 37.094355 47.822251 3.684744 -0.055431 66.591144 -0.024454 -0.583924 9.328950 -0.040467 -0.117375 -0.564667 -0.000000 0.000000 0.000000 0.000000 0.000000 0.000000 0.000000 
0.409472 16.218477 -1.006130 142.386330 86.959213 145.717158 -8.969469 2.071397 -0.287644 -22.035683 8.499644 -34.017224 -2.068107 2.186330 43.538090 3.527358 15.732760 -22.860476 175.589400 -0.000000 -0.516900 12.648551 -1.579404 -2.126390 -8.314355 -13.614746 -16.002935 -2.295512 -4.399921 71.681656 -1.677141 -4.925372 13.236188 -1.075400 -0.000000 -58.212800 -8.291412 0.864134 1.334108 -2.334582 1.318984 -3.327053 -5.684286 1.233124 -2.095840 7.102768 -0.757296 -6.592972 -2.804210 -0.230452 0.233951 0.000000 0.000000 0.000000 -10.995396 13.059256 3.170718 -68.322923 28.812225 10.036128 -4.255865 -8.139646 -0.008589 0.072975 7.669000 0.008466 -0.058829 -0.096710 -0.000000 0.000000 0.000000 0.000000 0.000000 0.000000 0.000000 8.946990 6.515832 -0.061323 38.577378 46.910407 3.677901 -0.033561 66.166896 -0.027426 -0.922195 9.788079 -0.073594 -0.110609 -0.568679 -0.000000 0.000000 0.000000 0.000000 0.000000 0.000000 0.000000 
0.510250 16.185244 -1.056597 141.370080 86.753377 144.468276 -8.991408 2.069853 -0.453574 -22.243888 8.480679 -33.391225 -2.054413 2.241335 44.223433 3.592555 15.969017 -23.655461 175.271500 0.000000 -0.744000 12.700508 -1.389424 -2.192078 -8.542236 -13.142907 -17.146970 -2.474889 -4.562911 73.732951 -1.906163 -7.326209 11.551009 -1.746700 -0.000000 -54.018800 -8.237469 0.848244 1.645528 -2.348295 1.304832 -3.279273 -5.797092 1.226306 -2.104750 7.228749 -0.317793 -6.449320 -2.981329 -0.244343 0.258434 0.000000 0.000000 0.000000 -10.961631 12.985383 3.257657 -68.058527 26.056194 10.553895 -4.148896 -7.825005 -0.006557 0.479668 7.128329 0.033126 -0.052463 -0.084103 -0.000000 0.000000 0.000000 0.000000 0.000000 0.000000 0.000000 9.697568 7.086885 0.002941 40.097219 45.860940 3.616067 -0.006040 65.714287 -0.030262 -1.257877 10.267938 -0.109519 -0.103572 -0.571564 -0.000000 0.000000 0.000000 0.000000 0.000000 0.000000 0.000000 
